<svg version="1.1" xmlns="http://www.w3.org/2000/svg" xmlns:xlink="http://www.w3.org/1999/xlink" x="0px" y="0px"
viewBox="0 0 1240 720" style="enable-background:new 0 0 1240 720;" xml:space="preserve">
	<polygon points="39,465.8 13.5,465.8 26.5,440.3 "/>
	<polygon points="128,407.3 106,385.3 139.2,374.5 "/>
	<polygon points="77.7,223.5 55.3,245.9 44.3,212.1 "/>
	<polygon points="253.4,483.8 217.4,483.8 235.7,447.8 "/>
	<polygon points="339,418.1 323.1,434 315.4,410 "/>
	<polygon points="426.1,356.7 398.8,384 385.4,342.7 "/>
	<polygon points="241.4,126.1 210.3,126.1 226.1,95 "/>
	<polygon points="412.5,196.6 433.2,217.3 402,227.5 "/>
	<polygon points="349.2,158.9 327.2,136.9 360.4,126.1 "/>
	<polygon points="110.8,122.2 95,138.1 87.2,114.1 "/>
	<polygon points="512.5,492.6 533.2,513.3 502,523.5 "/>
	<polygon points="490.4,680.8 454.4,680.8 472.7,644.8 "/>
	<polygon points="831.2,516.6 809.2,494.5 842.4,483.8 "/>
	<polygon points="1227,483.8 1201.5,483.8 1214.5,458.3 "/>
	<polygon points="409,504.2 393.1,520 385.4,496.1 "/>
	<polygon points="692.7,447.5 670.3,470 659.3,436.1 "/>
	<polygon points="49.5,607.6 70.2,628.3 39,638.5 "/>
	<polygon points="564.3,70.1 533.2,70.1 549,39 "/>
	<polygon points="1206.3,39.2 1227,59.8 1195.8,70 "/>
</svg>
