<?xml version="1.0" encoding="utf-8"?>
<!-- Generator: Adobe Illustrator 20.1.0, SVG Export Plug-In . SVG Version: 6.00 Build 0)  -->
<svg version="1.1" id="Layer_1" xmlns="http://www.w3.org/2000/svg" xmlns:xlink="http://www.w3.org/1999/xlink" x="0px" y="0px"
	 viewBox="0 0 1240 720" style="enable-background:new 0 0 1240 720;" xml:space="preserve">
<polygon points="39,465.8 13.5,465.8 26.5,440.3 "/>
<polygon points="128,397.3 106,375.3 139.2,364.5 "/>
<polygon points="339,418.1 323.1,434 315.4,410 "/>
<polygon points="250.9,95 219.8,95 235.7,63.9 "/>
<polygon points="412.5,196.6 433.2,217.3 402,227.5 "/>
<polygon points="110.8,122.2 95,138.1 87.2,114.1 "/>
<polygon points="512.5,492.6 533.2,513.3 502,523.5 "/>
<polygon points="483.1,680.8 454.4,680.8 469,652 "/>
<polygon points="825.4,510.8 809.2,494.5 833.7,486.6 "/>
<polygon points="1227,483.8 1201.5,483.8 1214.5,458.3 "/>
<polygon points="409,504.2 393.1,520 385.4,496.1 "/>
<polygon points="692.7,447.5 670.3,470 659.3,436.1 "/>
<polygon points="49.5,607.6 70.2,628.3 39,638.5 "/>
<polygon points="1206.3,39.2 1227,59.8 1195.8,70 "/>
<polygon points="730,265.1 714.1,281 706.3,257 "/>
</svg>
