<?xml version="1.0" encoding="utf-8"?>
<!-- Generator: Adobe Illustrator 20.1.0, SVG Export Plug-In . SVG Version: 6.00 Build 0)  -->
<svg version="1.1" id="Layer_1" xmlns="http://www.w3.org/2000/svg" xmlns:xlink="http://www.w3.org/1999/xlink" x="0px" y="0px"
	 viewBox="0 0 1240 720" style="enable-background:new 0 0 1240 720;" xml:space="preserve">
<g>
	<path d="M677.5,433.8c-0.4-0.1-0.7,0.1-0.8,0.5c0,0.1-0.1,0.1-0.1,0.2c0,0,0,0.1,0,0.1c-0.1,0.1-0.1,0.3-0.2,0.4
		c-0.3,0.6-0.6,1.2-1,1.7c0,0-0.1,0.1-0.1,0.1c0,0,0,0,0,0c0,0.1-0.1,0.1-0.1,0.2c-0.1,0.1-0.2,0.3-0.3,0.4
		c-0.2,0.3-0.5,0.5-0.7,0.7c-0.1,0.1-0.1,0.1-0.2,0.2c0,0-0.2,0.1-0.2,0.1c-0.1,0.1-0.2,0.2-0.3,0.2c-0.2,0.1-0.5,0.3-0.7,0.4
		c0.2-0.1,0.4-0.3,0.6-0.5c1.5-1.5,1.6-3.7,1.6-4l0-0.8c0-0.4-0.3-0.8-0.8-0.8c-0.4,0-0.8,0-0.8,0c-0.2,0-2,0.1-3.5,1.2
		c0-0.2,0-0.4,0.1-0.5c0.1-1.2,0-2.5-0.1-3.7c0-0.3-0.3-0.6-0.6-0.6c-0.3,0-0.7,0.3-0.6,0.6c0.1,1.2,0.2,2.4,0.1,3.6
		c0,0.2,0,0.3,0,0.5c0,0,0,0,0,0c0,0,0,0,0,0c0,0,0,0.1,0,0.1c0,0.1,0,0.1,0,0.2c-0.1,0.3-0.1,0.6-0.2,0.9c0,0.2-0.1,0.3-0.1,0.5
		c0,0,0,0,0,0c-0.5-1-1.1-1.6-1.2-1.7l-0.5-0.6c-0.3-0.3-0.8-0.3-1.1,0c-0.3,0.3-0.5,0.6-0.5,0.6c-0.2,0.2-1.4,1.5-1.6,3.3l-0.4-0.4
		c-0.2-0.2-0.7-0.2-1,0.1c-0.3,0.3-0.5,0.6-0.5,0.6c-0.2,0.2-1.4,1.5-1.6,3.4l-0.4-0.4c-0.2-0.2-0.7-0.2-1,0.1
		c-0.3,0.3-0.5,0.6-0.5,0.6c-0.2,0.2-1.7,1.8-1.7,3.9c0,2.1,1.5,3.8,1.7,3.9l0.1,0.1l-3.4,3.4c-0.4,0.4-0.4,0.9-0.2,1.2
		c0.3,0.3,0.8,0.2,1.2-0.2l3.4-3.4c0.2,0.2,1.8,1.7,3.9,1.7c2.1,0,3.8-1.5,3.9-1.7l0.6-0.5c0.3-0.3,0.4-0.7,0.1-1
		c-0.2-0.2-0.4-0.4-0.4-0.4c1.8-0.2,3.2-1.5,3.3-1.6l0.6-0.5c0.3-0.3,0.4-0.7,0.1-1c-0.2-0.2-0.4-0.4-0.4-0.4
		c1.8-0.2,3.2-1.5,3.3-1.6l0.6-0.5c0.3-0.3,0.3-0.8,0-1.1c-0.3-0.3-0.6-0.5-0.6-0.5c-0.1-0.1-0.4-0.3-0.8-0.6c1.1-0.4,2-1.2,2.8-2.1
		c0.9-1,1.6-2.2,2.1-3.5C678,434.2,677.8,433.9,677.5,433.8z M670.4,435.6c1.1-1.1,2.9-1.1,2.9-1.1s0,1.8-1.1,2.9s-2.9,1.1-2.9,1.1
		S669.3,436.7,670.4,435.6z M665.9,435c0,0,1.3,1.3,1.3,2.9s-1.3,2.9-1.3,2.9s-1.3-1.3-1.3-2.9S665.9,435,665.9,435z M662.3,438.6
		c0,0,1.3,1.3,1.3,2.9s-1.3,2.9-1.3,2.9s-1.3-1.3-1.3-2.9C661.1,439.9,662.3,438.6,662.3,438.6z M658.8,447.9c0,0-1.3-1.3-1.3-2.9
		c0-1.6,1.3-2.9,1.3-2.9s1.3,1.3,1.3,2.9C660,446.6,658.8,447.9,658.8,447.9z M662.8,450.3c-1.5,0-2.7-1.1-2.9-1.2l0.3-0.3
		c0.5-0.4,1.4-1,2.6-1c1.6,0,2.9,1.3,2.9,1.3S664.4,450.3,662.8,450.3z M666.4,446.7c-1.5,0-2.7-1.1-2.9-1.2l0.3-0.3
		c0.5-0.4,1.4-1,2.6-1c1.6,0,2.9,1.3,2.9,1.3S667.9,446.7,666.4,446.7z M669.9,443.1c-1.5,0-2.7-1.1-2.9-1.2l0,0l0,0
		c0.3-0.2,1.4-1.2,2.8-1.2c1.6,0,2.9,1.2,2.9,1.2S671.5,443.1,669.9,443.1z"/>
</g>
<path d="M731.7,288.4h-14.9c-0.2,0-0.5-0.1-0.6-0.3c-0.1-0.2-0.2-0.4-0.2-0.7c0-0.1,1.5-6.7,1.5-15.1c0-4-1.4-8-2.8-12.3
	c-1.5-4.5-3.1-9.2-3.1-14.3c0-9.6,3.2-16,3.4-16.3c0.1-0.3,0.4-0.4,0.7-0.4h17.2c0.3,0,0.6,0.2,0.7,0.4c0.1,0.3,3.4,6.7,3.4,16.3
	c0,5-1.6,9.7-3.1,14.3c-1.4,4.3-2.8,8.3-2.8,12.3c0,8.3,1.4,15,1.5,15.1c0.1,0.2,0,0.5-0.2,0.7C732.1,288.2,731.9,288.4,731.7,288.4
	z M717.7,286.8h13c-0.1-0.4-0.2-0.8-0.2-1.4H718C717.9,285.9,717.8,286.4,717.7,286.8z M718.2,283.8h12.1c-0.4-2.8-0.8-6.9-0.8-11.5
	c0-4.3,1.4-8.4,2.9-12.8c1.5-4.4,3-9,3-13.8c0-0.7,0-1.4,0-2h-22.1c0,0.7-0.1,1.3-0.1,2c0,4.8,1.5,9.3,3,13.8
	c1.5,4.4,2.9,8.5,2.9,12.8C719,276.9,718.6,281,718.2,283.8z M713.4,242.2H735c0.1-0.8-0.1-1.6-0.4-2.3l0,0c-0.5-1-1.5-1.7-2.3-1.7
	c0,0,0,0,0,0c-0.3,0-0.7-0.2-0.7-0.6c-0.3-1.1-1.4-1.9-2.6-1.9c-1.4,0-2.5,1-2.6,2.4c0,0.3-0.2,0.5-0.4,0.6c-0.2,0.1-0.5,0.1-0.7,0
	c-0.3-0.1-0.6-0.2-0.9-0.2c-0.6,0-1.6,0.5-2.1,1.2c-0.2,0.2-0.4,0.3-0.7,0.3c-0.3,0-0.5-0.2-0.6-0.4c-0.8-1.3-2-2.1-3.3-2.1
	C715.4,237.6,713.7,239.6,713.4,242.2z M717.5,236c1.5,0,3,0.7,4.1,2c0.7-0.6,1.7-1,2.6-1c0.2,0,0.4,0,0.7,0c0.6-1.7,2.1-2.9,4-2.9
	c1.7,0,3.2,1,3.9,2.5c0.6,0.1,1.2,0.4,1.7,0.7c-0.7-3.4-1.7-5.8-2.1-6.8h-16.2c-0.4,0.9-1.4,3.4-2.1,6.9
	C714.9,236.6,716.2,236,717.5,236z M725,272.9c-0.5,0-0.9-0.4-0.9-0.9c0-0.5,0.4-0.9,0.9-0.9c0.5,0,0.9,0.4,0.9,0.9
	C725.9,272.5,725.5,272.9,725,272.9z M722.7,262.8c-0.5,0-0.9-0.4-0.9-0.9s0.4-0.9,0.9-0.9s0.9,0.4,0.9,0.9S723.2,262.8,722.7,262.8
	z M725.9,254.2c-0.6,0-1-0.5-1-1c0-0.6,0.5-1,1-1c0.6,0,1,0.5,1,1S726.4,254.2,725.9,254.2z M720.7,250.3c-0.5,0-1-0.4-1-1
	c0-0.5,0.4-1,1-1s1,0.4,1,1C721.7,249.9,721.2,250.3,720.7,250.3z M730,248.7c-0.6,0-1-0.5-1-1s0.5-1,1-1c0.6,0,1,0.5,1,1
	S730.5,248.7,730,248.7z"/>
<g>
	<path d="M1200.8,49.3c-0.5,0.1-0.8,0.5-0.8,1c0,0.1,0,0.2,0,0.3c0,0,0,0.1,0,0.1c0,0.2,0,0.4,0,0.6c-0.1,0.9-0.2,1.8-0.4,2.7
		c0,0.1,0,0.1-0.1,0.2c0,0,0,0,0,0c0,0.1-0.1,0.2-0.1,0.3c-0.1,0.2-0.1,0.4-0.2,0.6c-0.2,0.4-0.3,0.9-0.6,1.3
		c-0.1,0.1-0.1,0.2-0.2,0.3c0,0-0.1,0.2-0.1,0.2c-0.1,0.2-0.2,0.3-0.3,0.5c-0.2,0.3-0.5,0.6-0.7,0.9c0.2-0.3,0.4-0.6,0.5-0.9
		c1.2-2.7,0.1-5.5,0-5.9l-0.4-1c-0.2-0.6-0.8-0.8-1.4-0.6c-0.5,0.2-1,0.4-1,0.4c-0.3,0.1-2.6,1.1-3.9,3.3c-0.1-0.2-0.1-0.5-0.2-0.7
		c-0.5-1.6-1.2-3.2-2.1-4.7c-0.2-0.4-0.7-0.7-1.1-0.5c-0.4,0.2-0.7,0.7-0.5,1.1c0.8,1.5,1.5,3,2,4.6c0.1,0.2,0.1,0.4,0.2,0.7
		c0,0,0,0,0,0c0,0,0,0,0,0c0,0,0,0.1,0,0.1c0,0.1,0,0.2,0.1,0.3c0.1,0.4,0.2,0.8,0.2,1.2c0,0.2,0,0.4,0,0.7c0,0,0,0,0,0
		c-1.1-1-2.2-1.5-2.4-1.6l-1-0.4c-0.5-0.2-1.2,0-1.4,0.5c-0.2,0.5-0.4,1-0.4,1c-0.1,0.3-1,2.6-0.4,5.1l-0.8-0.3
		c-0.4-0.2-1,0.1-1.2,0.6c-0.2,0.5-0.4,1-0.4,1c-0.1,0.3-1,2.6-0.4,5.1l-0.8-0.3c-0.4-0.2-0.9,0.1-1.2,0.6c-0.2,0.5-0.4,1-0.4,1
		c-0.1,0.3-1.2,3.1-0.1,5.9c1.1,2.7,3.9,4,4.2,4.2l0.2,0.1l-2.6,6c-0.3,0.7-0.1,1.4,0.4,1.6c0.5,0.2,1.1-0.1,1.4-0.8l2.6-6
		c0.4,0.1,3.1,1.2,5.8,0.1c2.7-1.1,4-3.8,4.2-4.1l0.4-1c0.2-0.5,0.1-1.1-0.3-1.3c-0.4-0.2-0.8-0.3-0.8-0.3c2.2-1.2,3.3-3.5,3.4-3.8
		l0.4-1c0.2-0.5,0.1-1.1-0.3-1.3c-0.4-0.2-0.8-0.3-0.8-0.3c2.2-1.2,3.3-3.5,3.4-3.8l0.4-1c0.2-0.5,0-1.2-0.5-1.4
		c-0.5-0.2-1-0.4-1-0.4c-0.1-0.1-0.6-0.2-1.3-0.4c1.2-1.1,2-2.6,2.5-4.1c0.6-1.8,0.9-3.7,0.9-5.5
		C1201.8,49.5,1201.3,49.2,1200.8,49.3z M1192.8,55.2c0.9-2,3.1-2.9,3.1-2.9s0.9,2.3,0,4.3c-0.9,2-3.1,2.9-3.1,2.9
		S1192,57.2,1192.8,55.2z M1186.8,56.7c0,0,2.2,1,3,3c0.8,2-0.1,4.3-0.1,4.3s-2.2-1-3-3C1185.8,58.9,1186.8,56.7,1186.8,56.7z
		 M1184,63c0,0,2.2,1,3,3s-0.1,4.3-0.1,4.3s-2.2-1-3-3C1183.1,65.3,1184,63,1184,63z M1184.2,76.7c0,0-2.2-1-3-3
		c-0.8-2,0.1-4.3,0.1-4.3s2.2,1,3,3C1185.1,74.5,1184.2,76.7,1184.2,76.7z M1190.5,77.8c-1.9,0.7-4,0-4.3-0.1l0.2-0.5
		c0.4-0.7,1.3-2,2.8-2.6c2-0.8,4.3,0.1,4.3,0.1S1192.5,77,1190.5,77.8z M1193.2,71.4c-1.9,0.7-4,0-4.3-0.1l0.2-0.5
		c0.4-0.7,1.3-2,2.8-2.6c2-0.8,4.3,0.1,4.3,0.1S1195.3,70.6,1193.2,71.4z M1196,65c-1.9,0.7-4,0-4.3-0.1l0-0.1l0,0
		c0.2-0.4,1.2-2.3,3-3c2-0.8,4.3,0.1,4.3,0.1S1198,64.2,1196,65z"/>
</g>
<path d="M1192.8,504.7H1180c-0.2,0-0.4-0.1-0.5-0.3s-0.2-0.4-0.1-0.6c0-0.1,1.3-5.8,1.3-12.9c0-3.4-1.2-6.9-2.4-10.6
	c-1.3-3.9-2.7-7.9-2.7-12.2c0-8.2,2.8-13.7,2.9-14c0.1-0.2,0.3-0.4,0.6-0.4h14.8c0.3,0,0.5,0.1,0.6,0.4c0.1,0.2,2.9,5.7,2.9,14
	c0,4.3-1.4,8.3-2.7,12.2c-1.2,3.7-2.4,7.1-2.4,10.6c0,7.2,1.2,12.9,1.3,12.9c0,0.2,0,0.4-0.1,0.6
	C1193.2,504.6,1193,504.7,1192.8,504.7z M1180.8,503.4h11.2c-0.1-0.3-0.1-0.7-0.2-1.2h-10.8C1181,502.7,1180.9,503.1,1180.8,503.4z
	 M1181.3,500.8h10.4c-0.3-2.4-0.7-5.9-0.7-9.9c0-3.7,1.2-7.2,2.5-11c1.3-3.8,2.6-7.7,2.6-11.8c0-0.6,0-1.2,0-1.7h-19
	c0,0.6,0,1.1,0,1.7c0,4.1,1.3,8,2.6,11.8c1.3,3.8,2.5,7.3,2.5,11C1182,494.9,1181.6,498.4,1181.3,500.8z M1177.1,465.1h18.6
	c0.1-0.7-0.1-1.4-0.4-2l0,0c-0.5-0.9-1.3-1.4-2-1.4c0,0,0,0,0,0c-0.3,0-0.6-0.2-0.6-0.5c-0.3-1-1.2-1.6-2.2-1.6
	c-1.2,0-2.2,0.9-2.3,2.1c0,0.2-0.1,0.4-0.3,0.5s-0.4,0.1-0.6,0c-0.2-0.1-0.5-0.1-0.8-0.1c-0.5,0-1.4,0.5-1.8,1
	c-0.1,0.2-0.3,0.3-0.6,0.3c-0.2,0-0.4-0.1-0.5-0.3c-0.7-1.1-1.7-1.8-2.9-1.8C1178.9,461.2,1177.4,462.9,1177.1,465.1z M1180.7,459.8
	c1.3,0,2.6,0.6,3.5,1.8c0.6-0.5,1.4-0.9,2.2-0.9c0.2,0,0.4,0,0.6,0c0.5-1.5,1.8-2.5,3.5-2.5c1.4,0,2.7,0.9,3.3,2.2
	c0.5,0.1,1,0.3,1.5,0.6c-0.6-3-1.5-5-1.8-5.8h-13.9c-0.4,0.8-1.2,2.9-1.8,5.9C1178.5,460.3,1179.5,459.8,1180.7,459.8z
	 M1187.1,491.5c-0.4,0-0.8-0.4-0.8-0.8c0-0.4,0.4-0.8,0.8-0.8s0.8,0.4,0.8,0.8C1187.9,491.1,1187.5,491.5,1187.1,491.5z
	 M1185.1,482.8c-0.4,0-0.7-0.3-0.7-0.7s0.3-0.7,0.7-0.7c0.4,0,0.7,0.3,0.7,0.7S1185.6,482.8,1185.1,482.8z M1187.8,475.5
	c-0.5,0-0.9-0.4-0.9-0.9c0-0.5,0.4-0.9,0.9-0.9s0.9,0.4,0.9,0.9S1188.3,475.5,1187.8,475.5z M1183.4,472.1c-0.5,0-0.8-0.4-0.8-0.8
	s0.4-0.8,0.8-0.8c0.5,0,0.8,0.4,0.8,0.8S1183.9,472.1,1183.4,472.1z M1191.4,470.7c-0.5,0-0.9-0.4-0.9-0.9c0-0.5,0.4-0.9,0.9-0.9
	s0.9,0.4,0.9,0.9C1192.3,470.3,1191.9,470.7,1191.4,470.7z"/>
<path d="M187.4,403.5h-14.9c-0.2,0-0.5-0.1-0.6-0.3c-0.1-0.2-0.2-0.4-0.2-0.7c0-0.1,1.5-6.7,1.5-15.1c0-4-1.4-8-2.8-12.3
	c-1.5-4.5-3.1-9.2-3.1-14.3c0-9.6,3.2-16,3.4-16.3c0.1-0.3,0.4-0.4,0.7-0.4h17.2c0.3,0,0.6,0.2,0.7,0.4c0.1,0.3,3.4,6.7,3.4,16.3
	c0,5-1.6,9.7-3.1,14.3c-1.4,4.3-2.8,8.3-2.8,12.3c0,8.3,1.4,15,1.5,15.1c0.1,0.2,0,0.5-0.2,0.7C187.8,403.3,187.6,403.5,187.4,403.5
	z M173.4,401.9h13c-0.1-0.4-0.2-0.8-0.2-1.4h-12.5C173.6,401,173.5,401.5,173.4,401.9z M173.9,398.9H186c-0.4-2.8-0.8-6.9-0.8-11.5
	c0-4.3,1.4-8.4,2.9-12.8c1.5-4.4,3-9,3-13.8c0-0.7,0-1.4,0-2h-22.1c0,0.7-0.1,1.3-0.1,2c0,4.8,1.5,9.3,3,13.8
	c1.5,4.4,2.9,8.5,2.9,12.8C174.7,392,174.3,396.1,173.9,398.9z M169.1,357.3h21.6c0.1-0.8-0.1-1.6-0.4-2.3l0,0
	c-0.5-1-1.5-1.7-2.3-1.7c0,0,0,0,0,0c-0.3,0-0.7-0.2-0.7-0.6c-0.3-1.1-1.4-1.9-2.6-1.9c-1.4,0-2.5,1-2.6,2.4c0,0.3-0.2,0.5-0.4,0.6
	s-0.5,0.1-0.7,0c-0.3-0.1-0.6-0.2-0.9-0.2c-0.6,0-1.6,0.5-2.1,1.2c-0.2,0.2-0.4,0.3-0.7,0.3c-0.3,0-0.5-0.2-0.6-0.4
	c-0.8-1.3-2-2.1-3.3-2.1C171.1,352.7,169.4,354.7,169.1,357.3z M173.2,351.1c1.5,0,3,0.7,4.1,2c0.7-0.6,1.7-1,2.6-1
	c0.2,0,0.4,0,0.7,0c0.6-1.7,2.1-2.9,4-2.9c1.7,0,3.2,1,3.9,2.5c0.6,0.1,1.2,0.4,1.7,0.7c-0.7-3.4-1.7-5.8-2.1-6.8h-16.2
	c-0.4,0.9-1.4,3.4-2.1,6.9C170.7,351.7,171.9,351.1,173.2,351.1z M180.7,388c-0.5,0-0.9-0.4-0.9-0.9s0.4-0.9,0.9-0.9
	s0.9,0.4,0.9,0.9S181.2,388,180.7,388z M178.4,377.9c-0.5,0-0.9-0.4-0.9-0.9s0.4-0.9,0.9-0.9c0.5,0,0.9,0.4,0.9,0.9
	S178.9,377.9,178.4,377.9z M181.6,369.4c-0.6,0-1-0.5-1-1s0.5-1,1-1c0.6,0,1,0.5,1,1C182.6,368.9,182.1,369.4,181.6,369.4z
	 M176.4,365.4c-0.5,0-1-0.4-1-1c0-0.5,0.4-1,1-1s1,0.4,1,1C177.4,365,176.9,365.4,176.4,365.4z M185.7,363.8c-0.6,0-1-0.5-1-1
	s0.5-1,1-1s1,0.5,1,1S186.2,363.8,185.7,363.8z"/>
<g>
	<path d="M266.7,99.4c0.2-0.3,0-0.7-0.3-0.9c-0.1,0-0.1-0.1-0.2-0.1c0,0-0.1,0-0.1-0.1c-0.1-0.1-0.2-0.2-0.3-0.2
		c-0.5-0.4-1-0.8-1.5-1.3c0,0-0.1-0.1-0.1-0.1c0,0,0,0,0,0c0-0.1-0.1-0.1-0.1-0.2c-0.1-0.1-0.2-0.3-0.3-0.4
		c-0.2-0.3-0.4-0.6-0.6-0.9c0-0.1-0.1-0.2-0.1-0.2c0,0-0.1-0.2-0.1-0.2c-0.1-0.1-0.1-0.2-0.2-0.4c-0.1-0.3-0.2-0.5-0.2-0.8
		c0.1,0.2,0.2,0.5,0.4,0.7c1.2,1.8,3.3,2.3,3.6,2.3l0.8,0.2c0.4,0.1,0.8-0.2,0.9-0.6c0.1-0.4,0.1-0.8,0.1-0.8c0-0.2,0.3-2-0.5-3.6
		c0.2,0.1,0.3,0.1,0.5,0.2c1.2,0.3,2.4,0.5,3.7,0.6c0.3,0,0.7-0.1,0.7-0.5c0.1-0.3-0.2-0.7-0.5-0.7c-1.2-0.1-2.4-0.2-3.6-0.6
		c-0.2,0-0.3-0.1-0.5-0.1c0,0,0,0,0,0c0,0,0,0,0,0c0,0-0.1,0-0.1,0c-0.1,0-0.1,0-0.2-0.1c-0.3-0.1-0.5-0.2-0.8-0.4
		c-0.1-0.1-0.3-0.2-0.4-0.2c0,0,0,0,0,0c1-0.3,1.8-0.7,1.9-0.8l0.7-0.4c0.4-0.2,0.5-0.7,0.2-1.1c-0.2-0.4-0.4-0.6-0.4-0.6
		c-0.1-0.2-1.2-1.7-3-2.2l0.5-0.3c0.3-0.2,0.3-0.6,0.1-1c-0.2-0.4-0.4-0.6-0.4-0.6c-0.1-0.2-1.2-1.7-3-2.2l0.5-0.3
		c0.3-0.2,0.3-0.6,0.1-1c-0.2-0.4-0.4-0.6-0.4-0.6c-0.1-0.2-1.4-2-3.5-2.4c-2.1-0.4-4,0.8-4.2,0.9l-0.1,0.1l-2.7-4
		c-0.3-0.4-0.8-0.6-1.1-0.4c-0.3,0.2-0.4,0.8-0.1,1.2l2.7,4c-0.2,0.2-2,1.4-2.4,3.5c-0.4,2.1,0.8,4,0.9,4.2l0.4,0.7
		c0.2,0.4,0.7,0.5,0.9,0.3c0.3-0.2,0.5-0.4,0.5-0.4c-0.1,1.9,0.8,3.4,1,3.6l0.4,0.7c0.2,0.4,0.7,0.5,0.9,0.3
		c0.3-0.2,0.5-0.4,0.5-0.4c-0.1,1.9,0.8,3.4,1,3.6l0.4,0.7c0.2,0.4,0.7,0.5,1.1,0.2s0.6-0.4,0.6-0.4c0.1-0.1,0.4-0.3,0.8-0.7
		c0.2,1.1,0.8,2.2,1.5,3.1c0.8,1.1,1.9,2,3.1,2.7C266.2,99.9,266.6,99.7,266.7,99.4z M266.3,92.1c0.9,1.3,0.6,3.1,0.6,3.1
		s-1.8-0.4-2.6-1.7c-0.9-1.3-0.6-3.1-0.6-3.1S265.4,90.8,266.3,92.1z M267.7,87.8c0,0-1.5,1-3.1,0.7c-1.6-0.3-2.6-1.8-2.6-1.8
		s1.5-1,3.1-0.7S267.7,87.8,267.7,87.8z M264.9,83.6c0,0-1.5,1-3.1,0.7c-1.6-0.3-2.6-1.8-2.6-1.8s1.5-1,3.1-0.7
		C263.9,82.2,264.9,83.6,264.9,83.6z M256.4,78.3c0,0,1.5-1,3.1-0.7c1.6,0.3,2.6,1.8,2.6,1.8s-1.5,1-3.1,0.7
		C257.5,79.8,256.4,78.3,256.4,78.3z M253.3,81.8c0.3-1.4,1.6-2.4,1.8-2.6l0.2,0.3c0.3,0.5,0.7,1.6,0.5,2.7
		c-0.3,1.6-1.8,2.6-1.8,2.6S253,83.4,253.3,81.8z M256.2,86c0.3-1.4,1.6-2.4,1.8-2.6l0.2,0.3c0.3,0.5,0.7,1.6,0.5,2.7
		c-0.3,1.6-1.8,2.6-1.8,2.6S255.9,87.6,256.2,86z M259,90.2c0.3-1.4,1.6-2.4,1.8-2.6l0,0l0,0c0.2,0.3,0.9,1.6,0.6,3
		c-0.3,1.6-1.8,2.6-1.8,2.6S258.7,91.8,259,90.2z"/>
</g>
<g>
	<path d="M54,441.3c-0.4,0.1-0.5,0.4-0.4,0.8c0,0.1,0,0.2,0,0.2c0,0,0,0.1,0,0.1c0,0.1,0,0.3,0,0.4c0.1,0.7,0.1,1.3,0,2
		c0,0.1,0,0.1,0,0.2c0,0,0,0,0,0c0,0.1,0,0.1,0,0.2c0,0.2-0.1,0.3-0.1,0.5c-0.1,0.3-0.2,0.7-0.3,1c0,0.1-0.1,0.2-0.1,0.3
		c0,0-0.1,0.2-0.1,0.2c-0.1,0.1-0.1,0.2-0.2,0.4c-0.1,0.2-0.3,0.5-0.4,0.7c0.1-0.2,0.2-0.5,0.3-0.7c0.5-2.1-0.5-4-0.7-4.2l-0.4-0.7
		c-0.2-0.4-0.7-0.5-1.1-0.3c-0.4,0.2-0.7,0.4-0.7,0.4c-0.2,0.1-1.7,1.1-2.4,2.8c-0.1-0.2-0.1-0.3-0.2-0.5c-0.5-1.1-1.3-2.2-2-3.1
		c-0.2-0.3-0.5-0.4-0.9-0.2c-0.3,0.2-0.4,0.6-0.2,0.9c0.7,1,1.4,2,2,3c0.1,0.2,0.1,0.3,0.2,0.5c0,0,0,0,0,0c0,0,0,0,0,0
		c0,0,0,0.1,0,0.1c0,0.1,0,0.1,0.1,0.2c0.1,0.3,0.2,0.6,0.3,0.8c0,0.2,0.1,0.3,0.1,0.5c0,0,0,0,0,0c-0.9-0.6-1.7-0.9-1.9-0.9
		l-0.8-0.2c-0.4-0.1-0.8,0.1-0.9,0.6c-0.1,0.4-0.2,0.8-0.2,0.8c-0.1,0.2-0.4,2,0.3,3.7l-0.6-0.2c-0.3-0.1-0.7,0.2-0.8,0.6
		c-0.1,0.4-0.2,0.8-0.2,0.8c-0.1,0.2-0.4,2,0.3,3.7l-0.6-0.2c-0.3-0.1-0.7,0.2-0.8,0.6c-0.1,0.4-0.2,0.8-0.2,0.8
		c-0.1,0.2-0.5,2.4,0.6,4.2c1.1,1.8,3.2,2.5,3.5,2.5l0.2,0l-1.2,4.6c-0.1,0.5,0.1,1,0.5,1.1c0.4,0.1,0.8-0.2,0.9-0.7l1.2-4.6
		c0.3,0.1,2.4,0.5,4.2-0.6c1.8-1.1,2.5-3.2,2.5-3.4l0.2-0.8c0.1-0.4-0.1-0.8-0.4-0.9c-0.3-0.1-0.6-0.1-0.6-0.1c1.5-1.1,2-2.9,2-3.1
		l0.2-0.8c0.1-0.4-0.1-0.8-0.4-0.9c-0.3-0.1-0.6-0.1-0.6-0.1c1.5-1.1,2-2.9,2-3.1l0.2-0.8c0.1-0.4-0.1-0.8-0.6-0.9
		c-0.4-0.1-0.8-0.2-0.8-0.2c-0.1,0-0.5-0.1-1-0.1c0.7-0.9,1.1-2.1,1.3-3.2c0.2-1.3,0.3-2.7,0-4.1C54.7,441.4,54.3,441.3,54,441.3z
		 M48.9,446.5c0.4-1.5,1.9-2.5,1.9-2.5s0.9,1.6,0.5,3.1c-0.4,1.5-1.9,2.5-1.9,2.5S48.5,448,48.9,446.5z M44.7,448.3
		c0,0,1.7,0.5,2.5,1.8c0.8,1.4,0.4,3.1,0.4,3.1s-1.7-0.5-2.5-1.8C44.3,450,44.7,448.3,44.7,448.3z M43.4,453.2c0,0,1.7,0.5,2.5,1.8
		c0.8,1.4,0.4,3.1,0.4,3.1s-1.7-0.5-2.5-1.8C43,454.9,43.4,453.2,43.4,453.2z M45.1,463c0,0-1.7-0.5-2.5-1.8
		c-0.8-1.4-0.4-3.1-0.4-3.1s1.7,0.5,2.5,1.8C45.5,461.3,45.1,463,45.1,463z M49.8,463c-1.3,0.7-2.9,0.4-3.1,0.4l0.1-0.4
		c0.2-0.5,0.7-1.6,1.7-2.2c1.4-0.8,3.1-0.4,3.1-0.4S51.1,462.2,49.8,463z M51,458.1c-1.3,0.7-2.9,0.4-3.1,0.4l0.1-0.4
		c0.2-0.5,0.7-1.6,1.7-2.2c1.4-0.8,3.1-0.4,3.1-0.4S52.4,457.3,51,458.1z M52.3,453.2c-1.3,0.7-2.9,0.4-3.1,0.4l0,0l0,0
		c0.1-0.3,0.6-1.8,1.8-2.5c1.4-0.8,3.1-0.4,3.1-0.4S53.6,452.4,52.3,453.2z"/>
</g>
<g>
	<path d="M823.9,480.3c-0.5,0.3-0.6,0.9-0.4,1.4c0.1,0.1,0.1,0.2,0.2,0.3c0,0,0,0.1,0.1,0.1c0.1,0.2,0.2,0.4,0.2,0.6
		c0.4,1,0.6,2,0.8,3.1c0,0.1,0,0.2,0,0.3c0,0,0,0,0,0c0,0.1,0,0.2,0,0.4c0,0.3,0,0.5,0.1,0.8c0,0.5,0,1.1,0,1.7c0,0.2,0,0.3,0,0.5
		c0,0.1,0,0.3,0,0.3c0,0.2-0.1,0.4-0.1,0.6c-0.1,0.4-0.2,0.9-0.4,1.3c0.1-0.4,0.1-0.8,0.1-1.2c0-3.4-2.4-6-2.7-6.3l-0.9-0.9
		c-0.5-0.5-1.3-0.5-1.7,0c-0.5,0.5-0.9,0.9-0.9,0.9c-0.2,0.3-2.2,2.4-2.6,5.3c-0.2-0.2-0.4-0.4-0.5-0.7c-1.3-1.5-2.8-2.9-4.4-4.1
		c-0.4-0.3-1-0.4-1.4,0c-0.4,0.4-0.4,1.1,0,1.4c1.5,1.2,3,2.5,4.3,4c0.2,0.2,0.4,0.4,0.5,0.6c0,0,0,0,0,0c0,0,0,0,0,0
		c0,0,0.1,0.1,0.1,0.1c0.1,0.1,0.1,0.2,0.2,0.3c0.3,0.4,0.5,0.8,0.8,1.2c0.1,0.2,0.2,0.5,0.4,0.7c0,0,0,0,0,0
		c-1.6-0.6-3.1-0.6-3.3-0.6l-1.3,0c-0.7,0-1.2,0.5-1.2,1.2s0,1.3,0,1.3c0,0.4,0.1,3.3,1.9,5.7l-1,0c-0.5,0-1,0.5-1,1.2
		c0,0.7,0,1.2,0,1.2c0,0.4,0.1,3.3,1.9,5.7l-1,0c-0.5,0-1,0.5-1,1.2c0,0.7,0,1.3,0,1.3c0,0.4,0.1,3.9,2.6,6.4c2.4,2.4,6,2.6,6.4,2.6
		l0.3,0l0,7.7c0,0.8,0.5,1.5,1.2,1.5c0.6,0,1.2-0.7,1.2-1.5l0-7.7c0.5,0,4-0.1,6.4-2.6c2.4-2.4,2.6-6,2.6-6.4l0-1.3
		c0-0.7-0.4-1.2-1-1.2c-0.5,0-1,0-1,0c1.8-2.4,1.9-5.3,1.9-5.7l0-1.3c0-0.7-0.4-1.2-1-1.2c-0.5,0-1,0-1,0c1.8-2.4,1.9-5.3,1.9-5.7
		l0-1.3c0-0.7-0.5-1.2-1.2-1.2c-0.7,0-1.3,0-1.3,0c-0.2,0-0.8,0-1.6,0.2c0.7-1.7,0.9-3.7,0.8-5.5c-0.2-2.2-0.7-4.4-1.6-6.4
		C825.1,480.2,824.4,480.1,823.9,480.3z M818,490.4c0-2.6,2-4.6,2-4.6s2,2.1,2,4.6c0,2.6-2,4.6-2,4.6S818,492.9,818,490.4z
		 M812.2,494.8c0,0,2.9,0,4.7,1.8c1.8,1.8,1.8,4.7,1.8,4.7s-2.9,0-4.7-1.8C812.2,497.7,812.2,494.8,812.2,494.8z M812.2,503
		c0,0,2.9,0,4.7,1.8c1.8,1.8,1.8,4.7,1.8,4.7s-2.9,0-4.7-1.8C812.2,505.9,812.2,503,812.2,503z M818.7,517.6c0,0-2.9,0-4.7-1.8
		c-1.8-1.8-1.8-4.7-1.8-4.7s2.9,0,4.7,1.8C818.7,514.8,818.7,517.6,818.7,517.6z M826,515.8c-1.7,1.7-4.3,1.8-4.6,1.8l0-0.6
		c0.1-0.9,0.5-2.8,1.8-4.1c1.8-1.8,4.7-1.8,4.7-1.8S827.8,514,826,515.8z M826,507.7c-1.7,1.7-4.3,1.8-4.6,1.8l0-0.6
		c0.1-0.9,0.5-2.8,1.8-4.1c1.8-1.8,4.7-1.8,4.7-1.8S827.8,505.9,826,507.7z M826,499.5c-1.7,1.7-4.3,1.8-4.6,1.8l0-0.1l0,0
		c0-0.6,0.2-3,1.8-4.6c1.8-1.8,4.7-1.9,4.7-1.9S827.8,497.7,826,499.5z"/>
</g>
<path d="M404,507.4h-10.9c-0.2,0-0.3-0.1-0.4-0.2c-0.1-0.1-0.1-0.3-0.1-0.5c0,0,1.1-4.9,1.1-11c0-2.9-1-5.9-2-9
	c-1.1-3.3-2.3-6.7-2.3-10.4c0-7,2.4-11.7,2.5-11.8c0.1-0.2,0.3-0.3,0.5-0.3h12.5c0.2,0,0.4,0.1,0.5,0.3c0.1,0.2,2.5,4.9,2.5,11.8
	c0,3.7-1.2,7.1-2.3,10.4c-1,3.1-2,6-2,9c0,6.1,1.1,10.9,1.1,11c0,0.2,0,0.3-0.1,0.5C404.3,507.3,404.1,507.4,404,507.4z
	 M393.8,506.2h9.5c-0.1-0.3-0.1-0.6-0.2-1H394C393.9,505.6,393.8,506,393.8,506.2z M394.1,504.1h8.8c-0.3-2.1-0.6-5-0.6-8.4
	c0-3.1,1-6.1,2.1-9.3c1.1-3.2,2.2-6.6,2.2-10c0-0.5,0-1,0-1.5h-16.1c0,0.5,0,1,0,1.5c0,3.5,1.1,6.8,2.2,10c1.1,3.2,2.1,6.2,2.1,9.3
	C394.7,499,394.4,502,394.1,504.1z M390.6,473.7h15.7c0.1-0.6-0.1-1.2-0.3-1.7l0,0c-0.4-0.7-1.1-1.2-1.7-1.2c0,0,0,0,0,0
	c-0.3,0-0.5-0.2-0.5-0.4c-0.2-0.8-1-1.4-1.9-1.4c-1,0-1.8,0.8-1.9,1.8c0,0.2-0.1,0.3-0.3,0.4c-0.2,0.1-0.4,0.1-0.5,0
	c-0.2-0.1-0.4-0.1-0.7-0.1c-0.5,0-1.2,0.4-1.5,0.8c-0.1,0.1-0.3,0.2-0.5,0.2c-0.2,0-0.4-0.1-0.5-0.3c-0.6-1-1.5-1.5-2.4-1.5
	C392.1,470.4,390.8,471.8,390.6,473.7z M393.6,469.2c1.1,0,2.2,0.5,3,1.5c0.5-0.4,1.2-0.8,1.9-0.8c0.2,0,0.3,0,0.5,0
	c0.4-1.2,1.6-2.1,2.9-2.1c1.2,0,2.3,0.7,2.8,1.8c0.4,0.1,0.9,0.3,1.2,0.5c-0.5-2.5-1.2-4.3-1.5-4.9h-11.8c-0.3,0.7-1,2.5-1.6,5
	C391.8,469.6,392.7,469.2,393.6,469.2z M399.1,496.1c-0.4,0-0.7-0.3-0.7-0.7c0-0.4,0.3-0.7,0.7-0.7s0.7,0.3,0.7,0.7
	C399.7,495.8,399.4,496.1,399.1,496.1z M397.4,488.7c-0.4,0-0.6-0.3-0.6-0.6c0-0.4,0.3-0.6,0.6-0.6c0.4,0,0.6,0.3,0.6,0.6
	C398.1,488.5,397.8,488.7,397.4,488.7z M399.7,482.5c-0.4,0-0.7-0.3-0.7-0.7c0-0.4,0.3-0.7,0.7-0.7c0.4,0,0.7,0.3,0.7,0.7
	C400.5,482.2,400.1,482.5,399.7,482.5z M395.9,479.7c-0.4,0-0.7-0.3-0.7-0.7c0-0.4,0.3-0.7,0.7-0.7s0.7,0.3,0.7,0.7
	C396.6,479.4,396.3,479.7,395.9,479.7z M402.7,478.5c-0.4,0-0.8-0.3-0.8-0.8c0-0.4,0.3-0.8,0.8-0.8s0.8,0.3,0.8,0.8
	C403.5,478.1,403.1,478.5,402.7,478.5z"/>
<path d="M111,150c0.8-3.2,1.3-6.3,1.4-9.4c0.3-0.2,0.4-0.5,0.4-0.9l0-1.2c0-0.4-0.2-0.7-0.4-0.9c-0.1-1.4-0.2-2.8-0.4-4.1
	c-0.1-0.7-0.6-1.2-1.3-1.4l-19.6-5c-0.7-0.2-1.4,0.1-1.8,0.6c-0.8,1-1.6,2.2-2.3,3.4c-0.3,0.1-0.7,0.3-0.8,0.6l-0.6,1.1
	c-0.2,0.3-0.2,0.7-0.1,1c-1.4,2.8-2.5,5.7-3.3,8.9c-0.8,3.2-1.3,6.3-1.4,9.4c-0.3,0.2-0.4,0.5-0.4,0.9l0,1.2c0,0.4,0.2,0.7,0.4,0.9
	c0.1,1.4,0.2,2.8,0.4,4.1c0.1,0.7,0.6,1.2,1.3,1.4l19.6,5c0.7,0.2,1.4-0.1,1.8-0.6c0.8-1,1.6-2.2,2.3-3.4c0.3-0.1,0.7-0.3,0.8-0.6
	l0.6-1.1c0.2-0.3,0.2-0.7,0.1-1C109.1,156.1,110.2,153.1,111,150z M95.8,162.7c0.4-1.1,0.8-2.2,1.2-3.5l4.5,1.1
	c-0.6,1.2-1.2,2.3-1.9,3.3L95.8,162.7z M90.4,161.3c0.2-1.1,0.4-2.4,0.6-3.6l5,1.3c-0.4,1.2-0.8,2.4-1.2,3.5L90.4,161.3z
	 M85.5,160.1c-0.1-1.2-0.1-2.5-0.1-3.8l4.5,1.1c-0.2,1.3-0.4,2.5-0.6,3.6L85.5,160.1z M81.5,154.1C81.5,154.1,81.5,154.1,81.5,154.1
	l0-1.3c0,0,0,0,0,0c0,0,0,0,0,0l3.4,0.9c0,0,0,0,0,0c0,0,0,0,0,0l21.7,5.6c0,0,0,0,0,0s0,0,0,0l-0.6,1.1c0,0,0,0,0,0L81.5,154.1
	L81.5,154.1z M97.4,129.8c-0.4,1.1-0.8,2.2-1.2,3.5l-4.5-1.1c0.6-1.2,1.2-2.3,1.9-3.3L97.4,129.8z M102.8,131.2
	c-0.2,1.1-0.4,2.4-0.6,3.6l-5-1.3c0.4-1.2,0.8-2.4,1.2-3.5L102.8,131.2z M107.7,132.4c0.1,1.2,0.1,2.5,0.1,3.8l-4.5-1.1
	c0.2-1.3,0.4-2.5,0.6-3.6L107.7,132.4z M111.7,138.4C111.7,138.4,111.7,138.4,111.7,138.4l0,1.3c0,0,0,0,0,0c0,0,0,0,0,0l-25.1-6.5
	c0,0,0,0,0,0s0,0,0,0l0.6-1.1c0,0,0,0,0,0L111.7,138.4z M104.1,157.5c1.1-2.7,2.1-5.5,2.9-8.5c0.8-3,1.3-6,1.6-8.9l2.7,0.7
	c-0.1,2.9-0.6,5.9-1.4,8.9c-0.8,3-1.8,5.8-3.1,8.5L104.1,157.5z M98.1,155.9c0.9-2.7,1.7-5.6,2.5-8.6c0.8-3,1.4-5.9,2-8.8l4.9,1.3
	c-0.3,2.9-0.8,5.9-1.6,8.9c-0.8,3-1.7,5.9-2.9,8.5L98.1,155.9z M81.9,151.8c0.1-2.9,0.6-5.9,1.4-8.9s1.8-5.8,3.1-8.5l2.7,0.7
	c-1.1,2.7-2.1,5.5-2.9,8.5c-0.8,3-1.3,6-1.6,8.9L81.9,151.8z M85.7,152.7c0.3-2.9,0.8-5.9,1.6-8.9c0.8-3,1.7-5.9,2.9-8.5l4.9,1.3
	c-0.9,2.7-1.7,5.6-2.5,8.6c-0.8,3-1.4,5.9-2,8.8L85.7,152.7z M91.6,154.3c0.6-2.8,1.2-5.8,2-8.8c0.8-3,1.6-5.9,2.5-8.6l5.4,1.4
	c-0.6,2.8-1.2,5.8-2,8.8c-0.8,3-1.6,5.9-2.5,8.6L91.6,154.3z M110.8,133.6c0.2,1.1,0.3,2.3,0.4,3.5l-2.4-0.6c0-1.3,0-2.6,0-3.8
	l1.6,0.4C110.6,133.2,110.8,133.4,110.8,133.6z M90.2,128.3c0.1-0.2,0.4-0.3,0.6-0.2l1.6,0.4c-0.6,1-1.3,2.1-1.8,3.3l-2.4-0.6
	C88.8,130.2,89.5,129.2,90.2,128.3z M82.3,158.9c-0.2-1.1-0.3-2.3-0.4-3.5l2.4,0.6c0,1.3,0,2.6,0,3.8l-1.6-0.4
	C82.5,159.3,82.4,159.1,82.3,158.9z M103,164.2c-0.1,0.2-0.4,0.3-0.6,0.2l-1.6-0.4c0.6-1,1.3-2.1,1.8-3.3l2.4,0.6
	C104.4,162.3,103.7,163.3,103,164.2z"/>
<path d="M421.2,224.9c-1.1-1.8-2.3-3.4-3.6-4.9c0-0.2-0.1-0.4-0.2-0.6l-0.6-0.6c-0.2-0.2-0.4-0.2-0.6-0.2c-0.7-0.6-1.3-1.2-2-1.7
	c-0.4-0.3-0.8-0.3-1.2,0l-11.1,6.6c-0.4,0.2-0.6,0.7-0.5,1.1c0.1,0.8,0.3,1.7,0.5,2.6c-0.1,0.2-0.2,0.4-0.1,0.6l0.2,0.8
	c0.1,0.2,0.2,0.4,0.4,0.5c0.6,1.9,1.5,3.7,2.5,5.5c1.1,1.8,2.3,3.4,3.6,4.9c0,0.2,0.1,0.4,0.2,0.6l0.6,0.6c0.2,0.2,0.4,0.2,0.6,0.2
	c0.7,0.6,1.3,1.2,2,1.7c0.4,0.3,0.8,0.3,1.2,0l11.1-6.6c0.4-0.2,0.6-0.7,0.5-1.1c-0.1-0.8-0.3-1.7-0.5-2.6c0.1-0.2,0.2-0.4,0.1-0.6
	l-0.2-0.8c-0.1-0.2-0.2-0.4-0.4-0.5C423.1,228.6,422.2,226.7,421.2,224.9z M420.1,237.6c-0.3-0.7-0.6-1.4-1-2.1l2.5-1.5
	c0.3,0.8,0.5,1.6,0.6,2.3L420.1,237.6z M417,239.4c-0.4-0.6-0.9-1.2-1.4-1.9l2.8-1.7c0.4,0.7,0.7,1.5,1,2.1L417,239.4z M414.2,241
	c-0.6-0.5-1.2-1.1-1.7-1.7l2.5-1.5c0.5,0.7,0.9,1.3,1.4,1.9L414.2,241z M409.7,240.1C409.7,240.1,409.7,240.1,409.7,240.1l-0.6-0.6
	c0,0,0,0,0,0c0,0,0,0,0,0l1.9-1.1c0,0,0,0,0,0c0,0,0,0,0,0l12.3-7.3c0,0,0,0,0,0c0,0,0,0,0,0l0.2,0.8c0,0,0,0,0,0L409.7,240.1
	L409.7,240.1z M405.9,222c0.3,0.7,0.6,1.4,1,2.1l-2.5,1.5c-0.3-0.8-0.5-1.6-0.6-2.3L405.9,222z M408.9,220.1
	c0.4,0.6,0.9,1.2,1.4,1.9l-2.8,1.7c-0.4-0.7-0.7-1.5-1-2.1L408.9,220.1z M411.7,218.5c0.6,0.5,1.2,1.1,1.7,1.7l-2.5,1.5
	c-0.5-0.7-0.9-1.3-1.4-1.9L411.7,218.5z M416.3,219.4C416.3,219.4,416.3,219.4,416.3,219.4l0.6,0.6c0,0,0,0,0,0c0,0,0,0,0,0
	l-14.3,8.4c0,0,0,0,0,0c0,0,0,0,0,0l-0.2-0.8c0,0,0,0,0,0L416.3,219.4z M421.4,231.4c-0.7-1.7-1.6-3.5-2.6-5.2
	c-1-1.7-2.1-3.3-3.3-4.7l1.5-0.9c1.3,1.4,2.4,2.9,3.4,4.6c1,1.7,1.8,3.5,2.4,5.2L421.4,231.4z M418.1,233.4c-0.9-1.6-1.8-3.3-2.8-5
	c-1-1.7-2-3.3-3-4.9l2.8-1.6c1.2,1.4,2.3,3,3.3,4.7c1,1.7,1.9,3.4,2.6,5.2L418.1,233.4z M408.8,238.9c-1.3-1.4-2.4-2.9-3.4-4.6
	s-1.8-3.5-2.4-5.2l1.5-0.9c0.7,1.7,1.6,3.5,2.6,5.2c1,1.7,2.1,3.3,3.3,4.7L408.8,238.9z M411,237.6c-1.2-1.4-2.3-3-3.3-4.7
	c-1-1.7-1.9-3.4-2.6-5.2l2.8-1.6c0.9,1.6,1.8,3.3,2.8,5c1,1.7,2,3.3,3,4.9L411,237.6z M414.4,235.6c-1-1.5-2-3.2-3-4.9
	c-1-1.7-1.9-3.4-2.8-5l3.1-1.8c1,1.5,2,3.2,3,4.9c1,1.7,1.9,3.4,2.8,5L414.4,235.6z M413.7,217.6c0.6,0.4,1.2,0.9,1.8,1.4l-1.4,0.8
	c-0.6-0.6-1.1-1.2-1.7-1.7l0.9-0.5C413.4,217.5,413.6,217.5,413.7,217.6z M402,224.5c0-0.2,0.1-0.3,0.2-0.4l0.9-0.5
	c0.2,0.8,0.4,1.5,0.7,2.3l-1.4,0.8C402.2,226,402.1,225.3,402,224.5z M412.2,241.9c-0.6-0.4-1.2-0.9-1.8-1.4l1.4-0.8
	c0.6,0.6,1.1,1.2,1.7,1.7l-0.9,0.5C412.5,242,412.4,242,412.2,241.9z M424,235c0,0.2-0.1,0.3-0.2,0.4l-0.9,0.5
	c-0.2-0.8-0.4-1.5-0.7-2.3l1.4-0.8C423.8,233.5,423.9,234.3,424,235z"/>
<path d="M482.2,654.7c1.8-2.7,3.3-5.6,4.4-8.4c0.3-0.1,0.6-0.4,0.7-0.7l0.4-1.2c0.1-0.3,0.1-0.7-0.1-1c0.4-1.4,0.7-2.7,0.9-4
	c0.1-0.7-0.2-1.4-0.8-1.7l-16.8-11.1c-0.6-0.4-1.3-0.4-1.9,0c-1.1,0.7-2.2,1.5-3.3,2.4c-0.3-0.1-0.7,0-1,0.3l-0.9,0.8
	c-0.3,0.2-0.4,0.6-0.4,0.9c-2.2,2.1-4.2,4.6-6,7.3c-1.8,2.7-3.3,5.6-4.4,8.4c-0.3,0.1-0.6,0.4-0.7,0.7l-0.4,1.2
	c-0.1,0.3-0.1,0.7,0.1,1c-0.4,1.4-0.7,2.7-0.9,4c-0.1,0.7,0.2,1.4,0.8,1.7l16.8,11.1c0.6,0.4,1.3,0.4,1.9,0c1.1-0.7,2.2-1.5,3.3-2.4
	c0.3,0.1,0.7,0,1-0.3l0.9-0.8c0.3-0.2,0.4-0.6,0.4-0.9C478.3,659.9,480.4,657.4,482.2,654.7z M463.6,661.8c0.7-0.9,1.5-1.8,2.3-2.9
	l3.8,2.5c-1,0.9-1.9,1.8-2.8,2.5L463.6,661.8z M459,658.7c0.5-1,1.1-2.1,1.7-3.2l4.3,2.8c-0.8,1-1.6,2-2.3,2.9L459,658.7z
	 M454.8,655.9c0.3-1.2,0.7-2.4,1.2-3.6l3.8,2.5c-0.6,1.1-1.2,2.2-1.7,3.2L454.8,655.9z M452.9,649C452.9,649,452.9,648.9,452.9,649
	l0.4-1.2c0,0,0,0,0,0c0,0,0,0,0,0l2.9,1.9c0,0,0,0,0,0c0,0,0,0,0,0L475,662c0,0,0,0,0,0s0,0,0,0l-0.9,0.8c0,0,0,0,0,0L452.9,649
	L452.9,649z M475.9,631.2c-0.7,0.9-1.5,1.8-2.3,2.9l-3.8-2.5c1-0.9,1.9-1.8,2.8-2.5L475.9,631.2z M480.5,634.2
	c-0.5,1-1.1,2.1-1.7,3.2l-4.3-2.8c0.8-1,1.6-2,2.3-2.9L480.5,634.2z M484.7,637c-0.3,1.2-0.7,2.4-1.2,3.6l-3.8-2.5
	c0.6-1.1,1.2-2.2,1.7-3.2L484.7,637z M486.6,644C486.6,644,486.6,644,486.6,644l-0.4,1.2c0,0,0,0,0,0c0,0,0,0,0,0l-21.6-14.3
	c0,0,0,0,0,0c0,0,0,0,0,0l0.9-0.8c0,0,0,0,0,0L486.6,644z M473.2,659.5c1.9-2.2,3.8-4.6,5.5-7.1c1.7-2.6,3.2-5.2,4.4-7.8l2.3,1.5
	c-1.1,2.7-2.5,5.4-4.2,8c-1.7,2.6-3.6,4.9-5.7,7L473.2,659.5z M468.1,656.1c1.7-2.3,3.4-4.8,5.1-7.4s3.3-5.1,4.8-7.6l4.2,2.8
	c-1.2,2.6-2.7,5.3-4.4,7.8s-3.6,5-5.5,7.1L468.1,656.1z M454.1,646.9c1.1-2.7,2.5-5.4,4.2-8c1.7-2.6,3.6-4.9,5.7-7l2.3,1.5
	c-1.9,2.2-3.8,4.6-5.5,7.1c-1.7,2.6-3.2,5.2-4.4,7.8L454.1,646.9z M457.4,649c1.2-2.6,2.7-5.3,4.4-7.8c1.7-2.6,3.6-5,5.5-7.1
	l4.2,2.8c-1.7,2.3-3.4,4.8-5.1,7.4c-1.7,2.6-3.3,5.1-4.8,7.6L457.4,649z M462.5,652.4c1.5-2.5,3.1-5,4.8-7.6
	c1.7-2.6,3.4-5.1,5.1-7.4l4.7,3.1c-1.5,2.5-3.1,5-4.8,7.6s-3.4,5.1-5.1,7.4L462.5,652.4z M487.4,639.2c-0.2,1.1-0.4,2.3-0.8,3.4
	l-2.1-1.4c0.5-1.2,0.9-2.4,1.2-3.6l1.4,0.9C487.3,638.7,487.4,639,487.4,639.2z M469.6,627.4c0.2-0.1,0.5-0.1,0.7,0l1.4,0.9
	c-0.9,0.8-1.9,1.6-2.8,2.5l-2.1-1.4C467.7,628.7,468.6,628,469.6,627.4z M452.2,653.7c0.2-1.1,0.4-2.3,0.8-3.4l2.1,1.4
	c-0.5,1.2-0.9,2.4-1.2,3.6l-1.4-0.9C452.2,654.2,452.1,654,452.2,653.7z M470,665.5c-0.2,0.1-0.5,0.1-0.7,0l-1.4-0.9
	c0.9-0.8,1.9-1.6,2.8-2.5l2.1,1.4C471.9,664.2,470.9,664.9,470,665.5z"/>
<path d="M1022.1,245.3c1.9,0.9,3.9,1.7,5.8,2.2c0.1,0.2,0.3,0.3,0.5,0.4l0.8,0.2c0.2,0.1,0.5,0,0.6-0.2c0.9,0.2,1.8,0.2,2.7,0.3
	c0.4,0,0.9-0.2,1.1-0.6l5.9-11.8c0.2-0.4,0.1-0.9-0.1-1.2c-0.5-0.7-1.2-1.3-1.8-2c0-0.2-0.1-0.5-0.3-0.6l-0.6-0.5
	c-0.2-0.1-0.4-0.2-0.6-0.2c-1.6-1.3-3.3-2.4-5.3-3.3c-1.9-0.9-3.9-1.7-5.8-2.2c-0.1-0.2-0.3-0.3-0.5-0.4l-0.8-0.2
	c-0.2-0.1-0.5,0-0.6,0.2c-0.9-0.2-1.8-0.2-2.7-0.3c-0.4,0-0.9,0.2-1.1,0.6l-5.9,11.8c-0.2,0.4-0.1,0.9,0.1,1.2
	c0.5,0.7,1.2,1.3,1.8,2c0,0.2,0.1,0.5,0.3,0.6l0.6,0.5c0.2,0.1,0.4,0.2,0.6,0.2C1018.4,243.3,1020.2,244.4,1022.1,245.3z
	 M1016,233.9c0.6,0.4,1.3,0.8,2,1.3l-1.3,2.7c-0.7-0.5-1.3-1.1-1.9-1.6L1016,233.9z M1017.6,230.6c0.7,0.3,1.5,0.5,2.2,0.9l-1.5,3
	c-0.7-0.4-1.4-0.9-2-1.3L1017.6,230.6z M1019.1,227.7c0.8,0.1,1.6,0.3,2.4,0.5l-1.3,2.7c-0.8-0.3-1.5-0.6-2.2-0.9L1019.1,227.7z
	 M1023.4,225.9C1023.4,225.9,1023.4,225.9,1023.4,225.9l0.8,0.2c0,0,0,0,0,0c0,0,0,0,0,0l-1,2.1c0,0,0,0,0,0c0,0,0,0,0,0l-6.5,13.1
	c0,0,0,0,0,0c0,0,0,0,0,0l-0.6-0.5c0,0,0,0,0,0L1023.4,225.9L1023.4,225.9z M1036.8,239.3c-0.6-0.4-1.3-0.8-2-1.3l1.3-2.7
	c0.7,0.5,1.3,1.1,1.9,1.6L1036.8,239.3z M1035.2,242.6c-0.7-0.3-1.5-0.5-2.2-0.9l1.5-3c0.7,0.4,1.4,0.9,2,1.3L1035.2,242.6z
	 M1033.8,245.6c-0.8-0.1-1.6-0.3-2.4-0.5l1.3-2.7c0.8,0.3,1.5,0.6,2.2,0.9L1033.8,245.6z M1029.4,247.3
	C1029.4,247.3,1029.4,247.3,1029.4,247.3l-0.8-0.2c0,0,0,0,0,0c0,0,0,0,0,0l7.5-15.2c0,0,0,0,0,0c0,0,0,0,0,0l0.6,0.5c0,0,0,0,0,0
	L1029.4,247.3z M1018.2,239.9c1.6,1.1,3.3,2.1,5.1,3c1.8,0.9,3.6,1.6,5.4,2.2l-0.8,1.6c-1.9-0.5-3.7-1.2-5.5-2.1
	c-1.8-0.9-3.5-2-5-3.1L1018.2,239.9z M1020,236.3c1.6,0.9,3.4,1.8,5.2,2.7c1.8,0.9,3.6,1.7,5.3,2.5l-1.5,2.9
	c-1.8-0.6-3.6-1.3-5.5-2.2c-1.8-0.9-3.5-1.9-5.1-3L1020,236.3z M1024.9,226.5c1.9,0.5,3.7,1.2,5.5,2.1c1.8,0.9,3.5,2,5,3.1l-0.8,1.6
	c-1.6-1.1-3.3-2.1-5.1-3c-1.8-0.9-3.6-1.6-5.4-2.2L1024.9,226.5z M1023.7,228.8c1.8,0.6,3.6,1.3,5.5,2.2c1.8,0.9,3.5,1.9,5.1,3
	l-1.5,2.9c-1.6-0.9-3.4-1.8-5.2-2.7c-1.8-0.9-3.6-1.7-5.3-2.5L1023.7,228.8z M1022,232.4c1.7,0.7,3.5,1.6,5.3,2.5
	c1.8,0.9,3.6,1.8,5.2,2.7l-1.6,3.3c-1.7-0.7-3.5-1.6-5.3-2.5c-1.8-0.9-3.6-1.8-5.2-2.7L1022,232.4z M1032.6,247.4
	c-0.7,0-1.5-0.1-2.3-0.2l0.7-1.5c0.8,0.2,1.6,0.4,2.4,0.5l-0.5,1C1032.9,247.4,1032.7,247.4,1032.6,247.4z M1038.8,234.9
	c0.1,0.1,0.1,0.3,0,0.4l-0.5,1c-0.6-0.5-1.2-1.1-1.9-1.6l0.7-1.5C1037.8,233.8,1038.3,234.4,1038.8,234.9z M1020.3,225.8
	c0.7,0,1.5,0.1,2.3,0.2l-0.7,1.5c-0.8-0.2-1.6-0.4-2.4-0.5l0.5-1C1019.9,225.9,1020.1,225.8,1020.3,225.8z M1014.1,238.3
	c-0.1-0.1-0.1-0.3,0-0.4l0.5-1c0.6,0.5,1.2,1.1,1.9,1.6l-0.7,1.5C1015.1,239.4,1014.5,238.9,1014.1,238.3z"/>
</svg>
