<?xml version="1.0" encoding="utf-8"?>
<!-- Generator: Adobe Illustrator 20.1.0, SVG Export Plug-In . SVG Version: 6.00 Build 0)  -->
<svg version="1.1" id="Layer_1" xmlns="http://www.w3.org/2000/svg" xmlns:xlink="http://www.w3.org/1999/xlink" x="0px" y="0px"
	 viewBox="0 0 1240 720" style="enable-background:new 0 0 1240 720;" xml:space="preserve">
<path d="M1030.2,229c0-0.7-0.6-1.2-1.2-1.2s-1.2,0.6-1.2,1.2s0.6,1.2,1.2,1.2S1030.2,229.7,1030.2,229z M1033.5,226.5v-11
	c0-0.3-0.2-0.5-0.5-0.5h-8c-0.3,0-0.5,0.2-0.5,0.5v11c0,0.3,0.2,0.5,0.5,0.5h8C1033.3,227,1033.5,226.8,1033.5,226.5z M1030.5,213.2
	c0-0.1-0.1-0.2-0.2-0.2h-2.5c-0.1,0-0.2,0.1-0.2,0.2s0.1,0.2,0.2,0.2h2.5C1030.4,213.5,1030.5,213.4,1030.5,213.2z M1035,213v16
	c0,1.1-0.9,2-2,2h-8c-1.1,0-2-0.9-2-2v-16c0-1.1,0.9-2,2-2h8C1034.1,211,1035,211.9,1035,213z"/>
<path d="M1208.8,56.5c0-0.3-0.2-0.5-0.5-0.5c-1.4,0-2.5,1.1-2.5,2.5c0,0.3,0.2,0.5,0.5,0.5s0.5-0.2,0.5-0.5c0-0.8,0.7-1.5,1.5-1.5
	C1208.5,57,1208.8,56.8,1208.8,56.5z M1212.3,58.5c0,2.2-1.8,4-4,4s-4-1.8-4-4s1.8-4,4-4S1212.3,56.3,1212.3,58.5z M1196.3,67.5h24
	v-2h-24V67.5z M1214.3,58.5c0-3.3-2.7-6-6-6s-6,2.7-6,6s2.7,6,6,6S1214.3,61.8,1214.3,58.5z M1198.3,48.5h6v-2h-6V48.5z
	 M1196.3,51.5h24v-4h-12.9l-1,2h-10.1L1196.3,51.5L1196.3,51.5z M1222.3,47.5v20c0,1.1-0.9,2-2,2h-24c-1.1,0-2-0.9-2-2v-20
	c0-1.1,0.9-2,2-2h24C1221.4,45.5,1222.3,46.4,1222.3,47.5z"/>
<path d="M717.7,272.2c0-0.7-0.6-1.2-1.2-1.2c-0.7,0-1.2,0.6-1.2,1.2c0,0.7,0.6,1.2,1.2,1.2C717.1,273.5,717.7,272.9,717.7,272.2z
	 M720.9,269.7v-11c0-0.3-0.2-0.5-0.5-0.5h-8c-0.3,0-0.5,0.2-0.5,0.5v11c0,0.3,0.2,0.5,0.5,0.5h8C720.7,270.2,720.9,270,720.9,269.7z
	 M717.9,256.5c0-0.1-0.1-0.2-0.2-0.2h-2.5c-0.1,0-0.2,0.1-0.2,0.2c0,0.1,0.1,0.2,0.2,0.2h2.5C717.8,256.7,717.9,256.6,717.9,256.5z
	 M722.4,256.2v16c0,1.1-0.9,2-2,2h-8c-1.1,0-2-0.9-2-2v-16c0-1.1,0.9-2,2-2h8C721.5,254.2,722.4,255.1,722.4,256.2z"/>
<path d="M397,514.5c0-0.7-0.6-1.2-1.2-1.2c-0.7,0-1.2,0.6-1.2,1.2s0.6,1.2,1.2,1.2C396.4,515.7,397,515.2,397,514.5z M400.3,512v-11
	c0-0.3-0.2-0.5-0.5-0.5h-8c-0.3,0-0.5,0.2-0.5,0.5v11c0,0.3,0.2,0.5,0.5,0.5h8C400,512.5,400.3,512.2,400.3,512z M397.3,498.7
	c0-0.1-0.1-0.2-0.2-0.2h-2.5c-0.1,0-0.2,0.1-0.2,0.2c0,0.1,0.1,0.2,0.2,0.2h2.5C397.2,499,397.3,498.9,397.3,498.7z M401.8,498.5v16
	c0,1.1-0.9,2-2,2h-8c-1.1,0-2-0.9-2-2v-16c0-1.1,0.9-2,2-2h8C400.9,496.5,401.8,497.4,401.8,498.5z"/>
<path d="M27.5,461c0-0.7-0.6-1.2-1.2-1.2S25,460.3,25,461s0.6,1.2,1.2,1.2S27.5,461.7,27.5,461z M30.8,458.5v-11
	c0-0.3-0.2-0.5-0.5-0.5h-8c-0.3,0-0.5,0.2-0.5,0.5v11c0,0.3,0.2,0.5,0.5,0.5h8C30.5,459,30.8,458.8,30.8,458.5z M27.8,445.3
	c0-0.1-0.1-0.2-0.2-0.2H25c-0.1,0-0.2,0.1-0.2,0.2s0.1,0.2,0.2,0.2h2.5C27.6,445.5,27.8,445.4,27.8,445.3z M32.2,445v16
	c0,1.1-0.9,2-2,2h-8c-1.1,0-2-0.9-2-2v-16c0-1.1,0.9-2,2-2h8C31.3,443,32.2,443.9,32.2,445z"/>
<path d="M238.7,89.5c0-0.7-0.6-1.2-1.2-1.2c-0.7,0-1.2,0.6-1.2,1.2c0,0.7,0.6,1.2,1.2,1.2C238.2,90.7,238.7,90.2,238.7,89.5z
	 M242,87V76c0-0.3-0.2-0.5-0.5-0.5h-8c-0.3,0-0.5,0.2-0.5,0.5v11c0,0.3,0.2,0.5,0.5,0.5h8C241.8,87.5,242,87.3,242,87z M239,73.7
	c0-0.1-0.1-0.2-0.2-0.2h-2.5c-0.1,0-0.2,0.1-0.2,0.2s0.1,0.2,0.2,0.2h2.5C238.9,74,239,73.9,239,73.7z M243.5,73.5v16
	c0,1.1-0.9,2-2,2h-8c-1.1,0-2-0.9-2-2v-16c0-1.1,0.9-2,2-2h8C242.6,71.5,243.5,72.4,243.5,73.5z"/>
<path d="M1220.8,472.2c0-0.3-0.2-0.5-0.5-0.5c-1.4,0-2.5,1.1-2.5,2.5c0,0.3,0.2,0.5,0.5,0.5s0.5-0.2,0.5-0.5c0-0.8,0.7-1.5,1.5-1.5
	C1220.5,472.7,1220.8,472.4,1220.8,472.2z M1224.3,474.2c0,2.2-1.8,4-4,4s-4-1.8-4-4s1.8-4,4-4S1224.3,472,1224.3,474.2z
	 M1208.3,483.2h24v-2h-24V483.2z M1226.3,474.2c0-3.3-2.7-6-6-6s-6,2.7-6,6c0,3.3,2.7,6,6,6S1226.3,477.5,1226.3,474.2z
	 M1210.3,464.2h6v-2h-6V464.2z M1208.3,467.2h24v-4h-12.9l-1,2h-10.1L1208.3,467.2L1208.3,467.2z M1234.3,463.2v20c0,1.1-0.9,2-2,2
	h-24c-1.1,0-2-0.9-2-2v-20c0-1.1,0.9-2,2-2h24C1233.4,461.2,1234.3,462,1234.3,463.2z"/>
<path d="M821.7,498c0-0.3-0.2-0.5-0.5-0.5c-1.4,0-2.5,1.1-2.5,2.5c0,0.3,0.2,0.5,0.5,0.5s0.5-0.2,0.5-0.5c0-0.8,0.7-1.5,1.5-1.5
	C821.5,498.5,821.7,498.3,821.7,498z M825.2,500c0,2.2-1.8,4-4,4s-4-1.8-4-4s1.8-4,4-4S825.2,497.8,825.2,500z M809.2,509h24v-2h-24
	V509z M827.2,500c0-3.3-2.7-6-6-6s-6,2.7-6,6c0,3.3,2.7,6,6,6S827.2,503.3,827.2,500z M811.2,490h6v-2h-6V490z M809.2,493h24v-4
	h-12.9l-1,2h-10.1L809.2,493L809.2,493z M835.2,489v20c0,1.1-0.9,2-2,2h-24c-1.1,0-2-0.9-2-2v-20c0-1.1,0.9-2,2-2h24
	C834.4,487,835.2,487.9,835.2,489z"/>
<path d="M672.4,447.7c0-0.3-0.2-0.5-0.5-0.5c-1.4,0-2.5,1.1-2.5,2.5c0,0.3,0.2,0.5,0.5,0.5c0.3,0,0.5-0.2,0.5-0.5
	c0-0.8,0.7-1.5,1.5-1.5C672.2,448.2,672.4,448,672.4,447.7z M675.9,449.8c0,2.2-1.8,4-4,4s-4-1.8-4-4s1.8-4,4-4
	S675.9,447.6,675.9,449.8z M659.9,458.7h24v-2h-24V458.7z M677.9,449.8c0-3.3-2.7-6-6-6c-3.3,0-6,2.7-6,6s2.7,6,6,6
	C675.2,455.8,677.9,453.1,677.9,449.8z M661.9,439.7h6v-2h-6V439.7z M659.9,442.7h24v-4H671l-1,2h-10.1L659.9,442.7L659.9,442.7z
	 M685.9,438.7v20c0,1.1-0.9,2-2,2h-24c-1.1,0-2-0.9-2-2v-20c0-1.1,0.9-2,2-2h24C685,436.7,685.9,437.6,685.9,438.7z"/>
<path d="M469.3,669.4c0-0.3-0.2-0.5-0.5-0.5c-1.4,0-2.5,1.1-2.5,2.5c0,0.3,0.2,0.5,0.5,0.5c0.3,0,0.5-0.2,0.5-0.5
	c0-0.8,0.7-1.5,1.5-1.5C469,669.9,469.3,669.7,469.3,669.4z M472.8,671.4c0,2.2-1.8,4-4,4s-4-1.8-4-4c0-2.2,1.8-4,4-4
	S472.8,669.2,472.8,671.4z M456.8,680.4h24v-2h-24V680.4z M474.8,671.4c0-3.3-2.7-6-6-6c-3.3,0-6,2.7-6,6c0,3.3,2.7,6,6,6
	C472.1,677.4,474.8,674.7,474.8,671.4z M458.8,661.4h6v-2h-6V661.4z M456.8,664.4h24v-4h-12.9l-1,2h-10.1L456.8,664.4L456.8,664.4z
	 M482.8,660.4v20c0,1.1-0.9,2-2,2h-24c-1.1,0-2-0.9-2-2v-20c0-1.1,0.9-2,2-2h24C481.9,658.4,482.8,659.3,482.8,660.4z"/>
<path d="M125.5,377.7c0-0.3-0.2-0.5-0.5-0.5c-1.4,0-2.5,1.1-2.5,2.5c0,0.3,0.2,0.5,0.5,0.5s0.5-0.2,0.5-0.5c0-0.8,0.7-1.5,1.5-1.5
	C125.3,378.2,125.5,378,125.5,377.7z M129,379.7c0,2.2-1.8,4-4,4c-2.2,0-4-1.8-4-4s1.8-4,4-4C127.2,375.7,129,377.5,129,379.7z
	 M113,388.7h24v-2h-24V388.7z M131,379.7c0-3.3-2.7-6-6-6c-3.3,0-6,2.7-6,6c0,3.3,2.7,6,6,6C128.3,385.7,131,383,131,379.7z
	 M115,369.7h6v-2h-6V369.7z M113,372.7h24v-4h-12.9l-1,2H113L113,372.7L113,372.7z M139,368.7v20c0,1.1-0.9,2-2,2h-24
	c-1.1,0-2-0.9-2-2v-20c0-1.1,0.9-2,2-2h24C138.1,366.7,139,367.6,139,368.7z"/>
<path d="M48.1,622.2c0-0.3-0.2-0.5-0.5-0.5c-1.4,0-2.5,1.1-2.5,2.5c0,0.3,0.2,0.5,0.5,0.5c0.3,0,0.5-0.2,0.5-0.5
	c0-0.8,0.7-1.5,1.5-1.5C47.9,622.7,48.1,622.5,48.1,622.2z M51.6,624.3c0,2.2-1.8,4-4,4s-4-1.8-4-4s1.8-4,4-4S51.6,622.1,51.6,624.3
	z M35.6,633.2h24v-2h-24V633.2z M53.6,624.3c0-3.3-2.7-6-6-6s-6,2.7-6,6s2.7,6,6,6S53.6,627.6,53.6,624.3z M37.6,614.2h6v-2h-6
	V614.2z M35.6,617.2h24v-4H46.7l-1,2H35.6L35.6,617.2L35.6,617.2z M61.6,613.2v20c0,1.1-0.9,2-2,2h-24c-1.1,0-2-0.9-2-2v-20
	c0-1.1,0.9-2,2-2h24C60.7,611.2,61.6,612.1,61.6,613.2z"/>
<path d="M414.1,207.3c0-0.3-0.2-0.5-0.5-0.5c-1.4,0-2.5,1.1-2.5,2.5c0,0.3,0.2,0.5,0.5,0.5s0.5-0.2,0.5-0.5c0-0.8,0.7-1.5,1.5-1.5
	C413.9,207.8,414.1,207.6,414.1,207.3z M417.6,209.3c0,2.2-1.8,4-4,4s-4-1.8-4-4s1.8-4,4-4S417.6,207.1,417.6,209.3z M401.6,218.3
	h24v-2h-24V218.3z M419.6,209.3c0-3.3-2.7-6-6-6c-3.3,0-6,2.7-6,6s2.7,6,6,6C416.9,215.3,419.6,212.6,419.6,209.3z M403.6,199.3h6
	v-2h-6V199.3z M401.6,202.3h24v-4h-12.9l-1,2h-10.1L401.6,202.3L401.6,202.3z M427.6,198.3v20c0,1.1-0.9,2-2,2h-24c-1.1,0-2-0.9-2-2
	v-20c0-1.1,0.9-2,2-2h24C426.7,196.3,427.6,197.2,427.6,198.3z"/>
<path d="M94.5,125.1c0-0.3-0.2-0.5-0.5-0.5c-1.4,0-2.5,1.1-2.5,2.5c0,0.3,0.2,0.5,0.5,0.5s0.5-0.2,0.5-0.5c0-0.8,0.7-1.5,1.5-1.5
	C94.3,125.6,94.5,125.4,94.5,125.1z M98,127.2c0,2.2-1.8,4-4,4c-2.2,0-4-1.8-4-4s1.8-4,4-4C96.2,123.2,98,125,98,127.2z M82,136.1
	h24v-2H82V136.1z M100,127.2c0-3.3-2.7-6-6-6c-3.3,0-6,2.7-6,6c0,3.3,2.7,6,6,6C97.3,133.2,100,130.5,100,127.2z M84,117.1h6v-2h-6
	V117.1z M82,120.1h24v-4H93l-1,2H82L82,120.1L82,120.1z M108,116.1v20c0,1.1-0.9,2-2,2H82c-1.1,0-2-0.9-2-2v-20c0-1.1,0.9-2,2-2h24
	C107.1,114.1,108,115,108,116.1z"/>
</svg>
